<mxfile host="65bd71144e" scale="1" border="0" disableSvgWarning="true">
    <diagram id="3mQajCpfwHifORi3GhFC" name="Page-1">
        <mxGraphModel dx="1844" dy="1709" grid="1" gridSize="20" guides="1" tooltips="1" connect="1" arrows="1" fold="1" page="1" pageScale="1" pageWidth="827" pageHeight="1169" math="0" shadow="0">
            <root>
                <mxCell id="0"/>
                <mxCell id="1" parent="0"/>
                <mxCell id="98" value="" style="edgeStyle=elbowEdgeStyle;exitX=0.5;exitY=1;exitDx=0;exitDy=0;entryX=0.5;entryY=0;entryDx=0;entryDy=0;fontFamily=Lucida Console;fontColor=default;endArrow=none;endFill=0;elbow=vertical;rounded=0;strokeWidth=2;" parent="1" source="64" target="95" edge="1">
                    <mxGeometry relative="1" as="geometry">
                        <Array as="points">
                            <mxPoint x="315.5" y="100"/>
                        </Array>
                    </mxGeometry>
                </mxCell>
                <mxCell id="64" value="Description&#10;&#10;[function]" style="rounded=1;fillColor=none;strokeWidth=2;" parent="1" vertex="1">
                    <mxGeometry x="200.5" width="160" height="80" as="geometry"/>
                </mxCell>
                <mxCell id="100" style="edgeStyle=elbowEdgeStyle;shape=connector;rounded=0;elbow=vertical;html=1;exitX=0.5;exitY=0;exitDx=0;exitDy=0;entryX=0.5;entryY=1;entryDx=0;entryDy=0;labelBackgroundColor=default;fontFamily=Lucida Console;fontSize=11;fontColor=default;endArrow=none;endFill=0;strokeColor=default;strokeWidth=2;" parent="1" source="91" target="64" edge="1">
                    <mxGeometry relative="1" as="geometry">
                        <Array as="points">
                            <mxPoint x="290.5" y="100"/>
                            <mxPoint x="240.5" y="150"/>
                        </Array>
                    </mxGeometry>
                </mxCell>
                <mxCell id="102" value="" style="edgeStyle=elbowEdgeStyle;shape=connector;rounded=0;elbow=vertical;html=1;labelBackgroundColor=default;fontFamily=Lucida Console;fontSize=11;fontColor=default;endArrow=none;endFill=0;strokeColor=default;entryX=0.5;entryY=0;entryDx=0;entryDy=0;exitX=0.5;exitY=1;exitDx=0;exitDy=0;strokeWidth=2;" parent="1" source="91" target="101" edge="1">
                    <mxGeometry relative="1" as="geometry">
                        <mxPoint x="115.5" y="390" as="targetPoint"/>
                        <Array as="points">
                            <mxPoint x="180.5" y="220"/>
                            <mxPoint x="190.5" y="225"/>
                        </Array>
                    </mxGeometry>
                </mxCell>
                <mxCell id="91" value="Description&#10;&#10;[function]" style="rounded=1;fillColor=none;glass=0;sketch=0;connectable=1;strokeWidth=2;" parent="1" vertex="1">
                    <mxGeometry x="100" y="120" width="160" height="80" as="geometry"/>
                </mxCell>
                <mxCell id="95" value="Description&#10;&#10;[function]" style="rounded=1;fillColor=none;glass=0;sketch=0;connectable=1;strokeWidth=2;" parent="1" vertex="1">
                    <mxGeometry x="301" y="120" width="160" height="80" as="geometry"/>
                </mxCell>
                <mxCell id="101" value="Description&#10;&#10;[function]" style="rounded=1;fillColor=none;glass=0;sketch=0;connectable=1;strokeWidth=2;" parent="1" vertex="1">
                    <mxGeometry y="240" width="160" height="80" as="geometry"/>
                </mxCell>
                <mxCell id="104" style="edgeStyle=elbowEdgeStyle;shape=connector;rounded=0;elbow=vertical;html=1;exitX=0.5;exitY=0;exitDx=0;exitDy=0;entryX=0.5;entryY=1;entryDx=0;entryDy=0;labelBackgroundColor=default;fontFamily=Lucida Console;fontSize=11;fontColor=default;endArrow=none;endFill=0;strokeColor=default;strokeWidth=2;" parent="1" source="103" target="91" edge="1">
                    <mxGeometry relative="1" as="geometry">
                        <Array as="points">
                            <mxPoint x="240.5" y="220"/>
                            <mxPoint x="240.5" y="225"/>
                            <mxPoint x="265.5" y="225"/>
                        </Array>
                    </mxGeometry>
                </mxCell>
                <mxCell id="103" value="Description&#10;&#10;[function]" style="rounded=1;fillColor=none;glass=0;sketch=0;connectable=1;strokeWidth=2;" parent="1" vertex="1">
                    <mxGeometry x="200" y="240" width="160" height="80" as="geometry"/>
                </mxCell>
                <mxCell id="106" style="edgeStyle=elbowEdgeStyle;shape=connector;rounded=0;elbow=vertical;html=1;exitX=0.5;exitY=0;exitDx=0;exitDy=0;entryX=0.5;entryY=1;entryDx=0;entryDy=0;labelBackgroundColor=default;fontFamily=Lucida Console;fontSize=11;fontColor=default;endArrow=none;endFill=0;strokeColor=default;strokeWidth=2;" parent="1" source="105" target="91" edge="1">
                    <mxGeometry relative="1" as="geometry">
                        <Array as="points">
                            <mxPoint x="260.5" y="220"/>
                            <mxPoint x="365.5" y="225"/>
                        </Array>
                    </mxGeometry>
                </mxCell>
                <mxCell id="105" value="Description&#10;&#10;[function]" style="rounded=1;fillColor=none;glass=0;sketch=0;connectable=1;strokeWidth=2;" parent="1" vertex="1">
                    <mxGeometry x="400.5" y="240" width="160" height="80" as="geometry"/>
                </mxCell>
                <mxCell id="108" style="edgeStyle=elbowEdgeStyle;shape=connector;rounded=0;elbow=vertical;html=1;exitX=0.5;exitY=0;exitDx=0;exitDy=0;entryX=0.5;entryY=1;entryDx=0;entryDy=0;labelBackgroundColor=default;fontFamily=Lucida Console;fontSize=18;fontColor=default;endArrow=none;endFill=0;strokeColor=default;strokeWidth=2;" parent="1" source="115" target="64" edge="1">
                    <mxGeometry relative="1" as="geometry">
                        <Array as="points">
                            <mxPoint x="515.5" y="100"/>
                        </Array>
                    </mxGeometry>
                </mxCell>
                <mxCell id="107" value="Description&#10;&#10;[function]" style="rounded=1;fillColor=none;glass=0;sketch=0;connectable=1;strokeWidth=2;" parent="1" vertex="1">
                    <mxGeometry x="500.75" y="380" width="160" height="80" as="geometry"/>
                </mxCell>
                <mxCell id="110" style="edgeStyle=elbowEdgeStyle;shape=connector;rounded=0;elbow=vertical;html=1;exitX=0.25;exitY=0;exitDx=0;exitDy=0;entryX=0.5;entryY=1;entryDx=0;entryDy=0;labelBackgroundColor=default;fontFamily=Lucida Console;fontSize=18;fontColor=default;endArrow=none;endFill=0;strokeColor=default;strokeWidth=2;" parent="1" source="109" target="103" edge="1">
                    <mxGeometry relative="1" as="geometry">
                        <Array as="points">
                            <mxPoint x="340.5" y="340"/>
                            <mxPoint x="365.5" y="350"/>
                        </Array>
                    </mxGeometry>
                </mxCell>
                <mxCell id="111" style="edgeStyle=elbowEdgeStyle;shape=connector;rounded=0;elbow=vertical;html=1;exitX=0.25;exitY=0;exitDx=0;exitDy=0;entryX=0.5;entryY=1;entryDx=0;entryDy=0;labelBackgroundColor=default;fontFamily=Lucida Console;fontSize=18;fontColor=default;endArrow=none;endFill=0;strokeColor=default;strokeWidth=2;" parent="1" source="109" target="105" edge="1">
                    <mxGeometry relative="1" as="geometry">
                        <Array as="points">
                            <mxPoint x="440.5" y="340"/>
                            <mxPoint x="465.5" y="350"/>
                        </Array>
                    </mxGeometry>
                </mxCell>
                <mxCell id="109" value="Description&#10;&#10;[function]" style="rounded=1;fillColor=none;glass=0;sketch=0;connectable=1;strokeWidth=2;" parent="1" vertex="1">
                    <mxGeometry x="300.75" y="380" width="160" height="80" as="geometry"/>
                </mxCell>
                <mxCell id="112" value="Description&#10;&#10;[function]" style="rounded=1;fillColor=none;glass=0;sketch=0;connectable=1;strokeWidth=2;" parent="1" vertex="1">
                    <mxGeometry x="700.25" y="380" width="160" height="80" as="geometry"/>
                </mxCell>
                <mxCell id="117" style="edgeStyle=elbowEdgeStyle;shape=connector;rounded=0;elbow=vertical;html=1;entryX=0.5;entryY=0;entryDx=0;entryDy=0;labelBackgroundColor=default;fontFamily=Lucida Console;fontSize=18;fontColor=default;endArrow=none;endFill=0;strokeColor=default;strokeWidth=2;exitX=0.5;exitY=1;exitDx=0;exitDy=0;" parent="1" source="115" target="107" edge="1">
                    <mxGeometry relative="1" as="geometry">
                        <mxPoint x="660.5" y="300" as="sourcePoint"/>
                        <Array as="points">
                            <mxPoint x="600.5" y="340"/>
                        </Array>
                    </mxGeometry>
                </mxCell>
                <mxCell id="118" style="edgeStyle=elbowEdgeStyle;shape=connector;rounded=0;elbow=vertical;html=1;exitX=0.5;exitY=1;exitDx=0;exitDy=0;entryX=0.5;entryY=0;entryDx=0;entryDy=0;labelBackgroundColor=default;fontFamily=Lucida Console;fontSize=18;fontColor=default;endArrow=none;endFill=0;strokeColor=default;strokeWidth=2;" parent="1" source="115" target="112" edge="1">
                    <mxGeometry relative="1" as="geometry">
                        <Array as="points">
                            <mxPoint x="680" y="360"/>
                        </Array>
                    </mxGeometry>
                </mxCell>
                <mxCell id="119" style="edgeStyle=elbowEdgeStyle;shape=connector;rounded=0;elbow=vertical;html=1;exitX=0.5;exitY=1;exitDx=0;exitDy=0;entryX=0.75;entryY=0;entryDx=0;entryDy=0;labelBackgroundColor=default;fontFamily=Lucida Console;fontSize=18;fontColor=default;endArrow=none;endFill=0;strokeColor=default;strokeWidth=2;" parent="1" source="115" target="109" edge="1">
                    <mxGeometry relative="1" as="geometry">
                        <Array as="points">
                            <mxPoint x="500" y="360"/>
                        </Array>
                    </mxGeometry>
                </mxCell>
                <mxCell id="115" value="Description&#10;&#10;[function]" style="rounded=1;fillColor=none;glass=0;sketch=0;connectable=1;strokeWidth=2;" parent="1" vertex="1">
                    <mxGeometry x="500.5" y="120" width="160" height="80" as="geometry"/>
                </mxCell>
            </root>
        </mxGraphModel>
    </diagram>
</mxfile>